<?xml version="1.0" standalone="no"?><!DOCTYPE svg PUBLIC "-//W3C//DTD SVG 1.1//EN" "http://www.w3.org/Graphics/SVG/1.1/DTD/svg11.dtd"><svg t="1559130649072" class="icon" style="" viewBox="0 0 1024 1024" version="1.1" xmlns="http://www.w3.org/2000/svg" p-id="2613" xmlns:xlink="http://www.w3.org/1999/xlink" width="48" height="48"><defs><style type="text/css"></style></defs><path d="M412.8 1002H312.5c-14.5 0-26.2-11.7-26.2-26.2v-63.4H439v63.4c0 14.4-11.7 26.2-26.2 26.2z" fill="#C1E7D8" p-id="2614"></path><path d="M412.8 1011H312.5c-19.4 0-35.2-15.8-35.2-35.2v-72.4H448v72.4c0 19.4-15.8 35.2-35.2 35.2z m-117.5-89.6v54.4c0 9.5 7.7 17.2 17.2 17.2h100.2c9.5 0 17.2-7.7 17.2-17.2v-54.4H295.3z" fill="#3E4152" p-id="2615"></path><path d="M709.7 1002H609.4c-14.5 0-26.2-11.7-26.2-26.2v-63.4h152.7v63.4c0 14.4-11.7 26.2-26.2 26.2z" fill="#C1E7D8" p-id="2616"></path><path d="M709.7 1011H609.4c-19.4 0-35.2-15.8-35.2-35.2v-72.4h170.7v72.4c0 19.4-15.8 35.2-35.2 35.2z m-117.5-89.6v54.4c0 9.5 7.7 17.2 17.2 17.2h100.2c9.5 0 17.2-7.7 17.2-17.2v-54.4H592.2z" fill="#3E4152" p-id="2617"></path><path d="M809.8 927.3H212.4c-32.2 0-58.4-26.1-58.4-58.4V82.4c0-32.2 26.1-58.4 58.4-58.4h597.5c32.2 0 58.4 26.1 58.4 58.4v786.5c-0.1 32.3-26.2 58.4-58.5 58.4z" fill="#C1E7D8" p-id="2618"></path><path d="M809.8 936.3H212.4c-37.2 0-67.4-30.2-67.4-67.4V82.4c0-37.2 30.2-67.4 67.4-67.4h597.5c37.2 0 67.4 30.2 67.4 67.4v786.5c-0.1 37.2-30.3 67.4-67.5 67.4zM212.4 33C185.1 33 163 55.2 163 82.4v786.5c0 27.2 22.2 49.4 49.4 49.4h597.5c27.2 0 49.4-22.2 49.4-49.4V82.4c0-27.2-22.2-49.4-49.4-49.4H212.4z" fill="#3E4152" p-id="2619"></path><path d="M154 163.9h714.2v18H154z" fill="#3E4152" p-id="2620"></path><path d="M818.9 927.3H203.3c-27.2 0-49.3-22.1-49.3-49.3V632.5h714.2V878c0 27.2-22 49.3-49.3 49.3z" fill="#9B5C77" p-id="2621"></path><path d="M818.9 936.3H203.3c-32.1 0-58.3-26.1-58.3-58.3V632.5c0-5 4-9 9-9h714.2c5 0 9 4 9 9V878c0 32.2-26.1 58.3-58.3 58.3zM163 641.5V878c0 22.2 18.1 40.3 40.3 40.3H819c22.2 0 40.3-18.1 40.3-40.3V641.5H163z" fill="#3E4152" p-id="2622"></path><path d="M154 627h714.2v18H154z" fill="#3E4152" p-id="2623"></path><path d="M363.7 749.6H236.5c-5 0-9-4-9-9s4-9 9-9h127.3c5 0 9 4 9 9s-4.1 9-9.1 9zM785.8 749.6H658.5c-5 0-9-4-9-9s4-9 9-9h127.3c5 0 9 4 9 9s-4.1 9-9 9z" fill="#3E4152" p-id="2624"></path><path d="M511.1 645c-5 0-9-4-9-9V172.9c0-5 4-9 9-9s9 4 9 9V636c0 5-4 9-9 9zM58.4 413.5c-5 0-9-4-9-9v-87.6l98.8-83.6c3.8-3.2 9.5-2.7 12.7 1.1s2.7 9.5-1.1 12.7l-92.4 78.2v79.2c0 4.9-4.1 9-9 9zM963.8 413.5c-5 0-9-4-9-9v-79.2L862.4 247c-3.8-3.2-4.3-8.9-1.1-12.7 3.2-3.8 8.9-4.3 12.7-1.1l98.8 83.6v87.6c0 5-4 9.1-9 9.1z" fill="#3E4152" p-id="2625"></path><path d="M868.2 240.1H154V73.3c0-27.2 22-49.3 49.3-49.3H819c27.2 0 49.3 22.1 49.3 49.3v166.8z" fill="#8599A4" p-id="2626"></path><path d="M877.2 249.1H145V73.3c0-32.1 26.1-58.3 58.3-58.3H819c32.1 0 58.3 26.1 58.3 58.3v175.8z m-714.2-18h696.2V73.3c0-22.2-18.1-40.3-40.3-40.3H203.3C181.1 33 163 51.1 163 73.3v157.8z" fill="#3E4152" p-id="2627"></path></svg>