<?xml version="1.0" standalone="no"?><!DOCTYPE svg PUBLIC "-//W3C//DTD SVG 1.1//EN" "http://www.w3.org/Graphics/SVG/1.1/DTD/svg11.dtd"><svg t="1559129868213" class="icon" style="" viewBox="0 0 1024 1024" version="1.1" xmlns="http://www.w3.org/2000/svg" p-id="1624" xmlns:xlink="http://www.w3.org/1999/xlink" width="48" height="48"><defs><style type="text/css"></style></defs><path d="M512 512m-473.770667 0a473.770667 473.770667 0 1 0 947.541334 0 473.770667 473.770667 0 1 0-947.541334 0Z" fill="#040000" p-id="1625"></path><path d="M512 512m-432.298667 0a432.298667 432.298667 0 1 0 864.597334 0 432.298667 432.298667 0 1 0-864.597334 0Z" fill="#F3C81E" p-id="1626"></path><path d="M309.418667 542.378667m-117.930667 0a117.930667 117.930667 0 1 0 235.861333 0 117.930667 117.930667 0 1 0-235.861333 0Z" fill="#F3961D" p-id="1627"></path><path d="M714.581333 542.378667m-117.930666 0a117.930667 117.930667 0 1 0 235.861333 0 117.930667 117.930667 0 1 0-235.861333 0Z" fill="#F3961D" p-id="1628"></path><path d="M334.506667 405.504m-63.317334 0a63.317333 63.317333 0 1 0 126.634667 0 63.317333 63.317333 0 1 0-126.634667 0Z" fill="#040000" p-id="1629"></path><path d="M674.304 405.504m-63.317333 0a63.317333 63.317333 0 1 0 126.634666 0 63.317333 63.317333 0 1 0-126.634666 0Z" fill="#040000" p-id="1630"></path><path d="M397.994667 660.309333c7.850667 55.978667 55.808 99.157333 114.005333 99.157334s106.154667-43.178667 114.005333-99.157334H397.994667z" fill="#FFFFFF" p-id="1631"></path><path d="M512 776.533333c-32.085333 0-62.976-11.605333-87.210667-32.768-23.893333-20.992-39.424-49.664-43.861333-81.066666l-2.730667-19.456h267.434667l-2.730667 19.456c-4.437333 31.232-19.968 60.074667-43.861333 81.066666-24.064 21.162667-54.954667 32.768-87.04 32.768z m-92.330667-99.157333C433.493333 715.605333 470.186667 742.4 512 742.4s78.506667-26.794667 92.330667-65.024H419.669333z" fill="#080103" p-id="1632"></path></svg>