<?xml version="1.0" standalone="no"?><!DOCTYPE svg PUBLIC "-//W3C//DTD SVG 1.1//EN" "http://www.w3.org/Graphics/SVG/1.1/DTD/svg11.dtd"><svg t="1559130607554" class="icon" style="" viewBox="0 0 1024 1024" version="1.1" xmlns="http://www.w3.org/2000/svg" p-id="2150" xmlns:xlink="http://www.w3.org/1999/xlink" width="48" height="48"><defs><style type="text/css"></style></defs><path d="M942.4 773.5H28.6V391.7c0-25.9 21-46.8 46.8-46.8h786c75.1 0 136.1 60.9 136.1 136.1v237.6c-0.1 30.3-24.7 54.9-55.1 54.9z" fill="#C1E7D8" p-id="2151"></path><path d="M942.4 782.5H28.6c-5 0-9-4-9-9V391.7c0-30.8 25.1-55.8 55.8-55.8h786c80 0 145.1 65.1 145.1 145.1v237.6c-0.1 35.2-28.8 63.9-64.1 63.9z m-904.8-18h904.9c25.4 0 46-20.6 46-46V480.9c0-70.1-57-127.1-127.1-127.1h-786c-20.9 0-37.8 17-37.8 37.8v372.9z" fill="#3E4152" p-id="2152"></path><path d="M361.5 524.9h-333V396.4c0-28.5 23.1-51.6 51.6-51.6h281.4v180.1z" fill="#9B5C77" p-id="2153"></path><path d="M361.5 533.9h-333c-5 0-9-4-9-9V396.4c0-33.4 27.2-60.6 60.6-60.6h281.4c5 0 9 4 9 9v180.1c0 5-4 9-9 9z m-323.9-18h315V353.8H80.1c-23.5 0-42.6 19.1-42.6 42.6v119.5z" fill="#3E4152" p-id="2154"></path><path d="M990.8 524.9H543V344.8h323.5c68.6 0 124.3 55.6 124.3 124.3v55.8z" fill="#9B5C77" p-id="2155"></path><path d="M990.8 533.9H543c-5 0-9-4-9-9V344.8c0-5 4-9 9-9h323.5c73.5 0 133.3 59.8 133.3 133.3v55.8c0 5-4 9-9 9z m-438.8-18h429.8v-46.8c0-63.6-51.7-115.3-115.3-115.3H552v162.1zM358.7 533.9c-5 0-9-4-9-9V344.8c0-5 4-9 9-9s9 4 9 9v180.1c0 5-4.1 9-9 9z" fill="#3E4152" p-id="2156"></path><path d="M997.4 542h-94.3s-87.5-197.2-36.8-197.2H856c78.1 0 141.5 63.3 141.5 141.5V542z" fill="#C1E7D8" p-id="2157"></path><path d="M997.4 551h-94.3c-3.6 0-6.8-2.1-8.2-5.3-0.2-0.4-17.9-40.4-32.6-83.9-8.7-25.8-14.8-47.8-18-65.4-4.4-24.5-3.6-40.5 2.8-50.3-0.1-0.4-0.1-0.8-0.1-1.2 0-5 4-9 9-9h10.3c1.1 0 2.2 0.2 3.3 0.6 76.6 6.9 136.9 71.5 136.9 149.9V542c-0.1 5-4.1 9-9.1 9zM909 533h79.4v-46.7c0-70.3-55-127.9-124.2-132.2-1 0.3-1.6 0.9-2.1 1.7-1.6 2.5-5 11.2-0.2 37.4 3 16.8 8.9 37.9 17.3 62.9 11.5 33.4 24.6 64.8 29.8 76.9z" fill="#3E4152" p-id="2158"></path><path d="M157.9 773.5m-67.9 0a67.9 67.9 0 1 0 135.8 0 67.9 67.9 0 1 0-135.8 0Z" fill="#8599A4" p-id="2159"></path><path d="M157.9 850.4c-42.4 0-76.9-34.5-76.9-76.9s34.5-76.9 76.9-76.9 76.9 34.5 76.9 76.9-34.5 76.9-76.9 76.9z m0-135.7c-32.5 0-58.9 26.4-58.9 58.9s26.4 58.9 58.9 58.9 58.9-26.4 58.9-58.9-26.5-58.9-58.9-58.9z" fill="#3E4152" p-id="2160"></path><path d="M293.6 773.5m-67.9 0a67.9 67.9 0 1 0 135.8 0 67.9 67.9 0 1 0-135.8 0Z" fill="#8599A4" p-id="2161"></path><path d="M293.6 850.4c-42.4 0-76.9-34.5-76.9-76.9s34.5-76.9 76.9-76.9 76.9 34.5 76.9 76.9-34.5 76.9-76.9 76.9z m0-135.7c-32.5 0-58.9 26.4-58.9 58.9s26.4 58.9 58.9 58.9 58.9-26.4 58.9-58.9-26.4-58.9-58.9-58.9z" fill="#3E4152" p-id="2162"></path><path d="M850.5 773.5m-67.9 0a67.9 67.9 0 1 0 135.8 0 67.9 67.9 0 1 0-135.8 0Z" fill="#8599A4" p-id="2163"></path><path d="M850.5 850.4c-42.4 0-76.9-34.5-76.9-76.9s34.5-76.9 76.9-76.9 76.9 34.5 76.9 76.9-34.5 76.9-76.9 76.9z m0-135.7c-32.5 0-58.9 26.4-58.9 58.9s26.4 58.9 58.9 58.9 58.9-26.4 58.9-58.9-26.4-58.9-58.9-58.9z" fill="#3E4152" p-id="2164"></path><path d="M361.5 476.3v297.2" fill="#9B5C77" p-id="2165"></path><path d="M361.5 782.5c-5 0-9-4-9-9V476.3c0-5 4-9 9-9s9 4 9 9v297.2c0 5-4 9-9 9z" fill="#3E4152" p-id="2166"></path><path d="M543 476.3v297.2" fill="#9B5C77" p-id="2167"></path><path d="M543 782.5c-5 0-9-4-9-9V476.3c0-5 4-9 9-9s9 4 9 9v297.2c0 5-4 9-9 9z" fill="#3E4152" p-id="2168"></path><path d="M602.3 344.8H332.2v-65.7H543z" fill="#C1E7D8" p-id="2169"></path><path d="M602.3 353.8H332.2c-5 0-9-4-9-9v-65.7c0-5 4-9 9-9H543c2.5 0 5 1.1 6.7 3l59.3 65.7c2.4 2.6 3 6.4 1.5 9.7-1.4 3.2-4.6 5.3-8.2 5.3z m-261.1-18h240.9L539 288.1H341.2v47.7z" fill="#3E4152" p-id="2170"></path><path d="M435.1 288.1c-1.6 0-3.3-0.4-4.8-1.4L246 171c-4.2-2.6-5.5-8.2-2.8-12.4 2.6-4.2 8.2-5.5 12.4-2.8l184.3 115.8c4.2 2.6 5.5 8.2 2.8 12.4a9.1 9.1 0 0 1-7.6 4.1z" fill="#3E4152" p-id="2171"></path></svg>