<?xml version="1.0" standalone="no"?><!DOCTYPE svg PUBLIC "-//W3C//DTD SVG 1.1//EN" "http://www.w3.org/Graphics/SVG/1.1/DTD/svg11.dtd"><svg t="1559223622471" class="icon" style="" viewBox="0 0 1024 1024" version="1.1" xmlns="http://www.w3.org/2000/svg" p-id="1110" xmlns:xlink="http://www.w3.org/1999/xlink" width="48" height="48"><defs><style type="text/css"></style></defs><path d="M764.112 465.586l-108.973-40.358-68.599-125.112c-4.043-4.039-8.086-8.076-8.086-12.112-4.021-4.031-4.021-4.031-8.064-8.068-28.257-28.25-68.603-32.282-104.924-16.144l-189.69 64.578c-16.139 4.031-28.245 20.175-32.282 36.321l-16.144 149.319c-4.031 24.225 16.144 48.439 40.357 52.471l4.036 0c24.214 0 44.396-16.138 44.396-40.353l12.107-117.042 72.641-24.218c-12.107 28.25-24.214 56.502-32.282 76.685-16.144 36.321-16.144 84.748 4.031 125.112l-125.106 290.588c-12.107 28.235 0 64.567 28.245 76.673 12.112-4.031 20.182 0 28.257 0 24.214 0 44.389-12.107 52.463-36.321l92.824-209.861c56.497 100.888 121.07 217.935 121.07 221.968 12.107 20.182 32.288 32.288 52.471 32.288 8.064 0 20.171-4.043 28.246-8.076 28.257-16.138 40.364-52.46 24.214-80.716-4.031-8.064-100.888-189.68-165.458-298.653l56.485-125.112 20.193 36.321c4.031 12.107 16.138 16.144 24.214 20.182l125.101 48.427c4.043 0 12.107 4.031 16.15 4.031 20.171 0 36.321-12.107 44.396-32.278 4.029-24.224-8.077-52.475-32.291-60.546M570.39 239.577c48.427 0 88.792-40.358 88.792-88.785 0-48.432-40.364-88.792-88.792-88.792-48.421 0-88.784 40.357-88.784 88.792 0 48.428 40.364 88.785 88.784 88.785z" p-id="1111"></path></svg>