<?xml version="1.0" standalone="no"?><!DOCTYPE svg PUBLIC "-//W3C//DTD SVG 1.1//EN" "http://www.w3.org/Graphics/SVG/1.1/DTD/svg11.dtd"><svg t="1559129873755" class="icon" style="" viewBox="0 0 1024 1024" version="1.1" xmlns="http://www.w3.org/2000/svg" p-id="1762" xmlns:xlink="http://www.w3.org/1999/xlink" width="48" height="48"><defs><style type="text/css"></style></defs><path d="M517.973333 512m-474.624 0a474.624 474.624 0 1 0 949.248 0 474.624 474.624 0 1 0-949.248 0Z" fill="#040000" p-id="1763"></path><path d="M517.973333 512m-433.152 0a433.152 433.152 0 1 0 866.304 0 433.152 433.152 0 1 0-866.304 0Z" fill="#F3C81E" p-id="1764"></path><path d="M121.344 599.04c0-252.757333 204.8-457.557333 457.557333-457.557333 97.962667 0 188.757333 30.890667 263.168 83.456-79.36-89.6-195.072-146.090667-324.266666-146.090667C278.698667 78.848 84.821333 272.725333 84.821333 512c0 74.922667 19.114667 145.578667 52.565334 207.018667-10.410667-38.229333-16.042667-78.506667-16.042667-119.978667z" fill="#F6D85E" p-id="1765"></path><path d="M347.818667 391.168m-63.488 0a63.488 63.488 0 1 0 126.976 0 63.488 63.488 0 1 0-126.976 0Z" fill="#040000" p-id="1766"></path><path d="M600.405333 428.373333l-28.330666-18.773333c1.536-2.389333 39.594667-58.368 98.645333-62.805333 36.181333-2.730667 71.168 14.336 104.106667 50.688l-25.258667 22.869333c-25.429333-28.16-51.029333-41.301333-76.288-39.424-41.984 2.901333-72.533333 47.104-72.874667 47.445333zM521.557333 823.296l-14.506666-30.890667c30.890667-14.506667 49.322667-30.037333 51.712-43.349333 2.730667-14.677333-13.482667-31.232-26.624-44.714667-5.461333-5.461333-10.410667-10.752-14.165334-15.701333l-9.216-12.629333 11.776-10.410667c14.677333-12.8 31.402667-31.744 27.818667-48.64-4.778667-22.186667-42.154667-38.4-54.954667-42.325333l9.898667-32.597334c6.997333 2.048 68.608 22.016 78.336 67.754667 4.949333 22.698667-3.925333 46.08-26.282667 69.461333 0.341333 0.341333 0.682667 0.853333 1.194667 1.194667 16.554667 16.896 41.472 42.496 35.669333 74.581333-4.437333 25.770667-27.648 48.128-70.656 68.266667z" fill="#080103" p-id="1767"></path><path d="M864.597333 644.949333c0 68.266667-102.570667 123.562667-102.570666 123.562667s-102.570667-55.296-102.570667-123.562667 102.570667 0.853333 102.570667 0.853334 102.570667-69.12 102.570666-0.853334z" fill="#E22924" p-id="1768"></path><path d="M762.026667 787.797333l-8.021334-4.437333c-4.608-2.389333-111.445333-60.928-111.445333-138.581333 0-25.429333 11.605333-36.864 21.333333-42.154667 16.554667-8.704 39.594667-6.144 70.485334 8.021333 11.093333 5.12 20.992 10.581333 27.818666 14.848 6.826667-4.096 16.725333-9.728 27.818667-14.848 30.890667-14.165333 53.930667-16.896 70.485333-8.021333 9.728 5.12 21.333333 16.725333 21.333334 42.154667 0 77.482667-107.008 136.021333-111.445334 138.581333l-8.362666 4.437333z m-76.117334-155.989333c-2.56 0-4.608 0.341333-6.144 1.194667-3.072 1.536-3.242667 9.557333-3.242666 11.946666 0 43.178667 55.808 85.845333 85.504 103.765334 29.696-18.090667 85.504-60.757333 85.504-103.765334 0-2.389333-0.170667-10.410667-3.242667-11.946666-10.410667-5.461333-46.933333 9.728-72.704 26.965333l-9.557333 6.485333-9.557334-6.485333c-22.016-14.848-51.712-28.16-66.56-28.16z" fill="#070001" p-id="1769"></path></svg>