<?xml version="1.0" standalone="no"?><!DOCTYPE svg PUBLIC "-//W3C//DTD SVG 1.1//EN" "http://www.w3.org/Graphics/SVG/1.1/DTD/svg11.dtd"><svg t="1559129852624" class="icon" style="" viewBox="0 0 1024 1024" version="1.1" xmlns="http://www.w3.org/2000/svg" p-id="1354" xmlns:xlink="http://www.w3.org/1999/xlink" width="48" height="48"><defs><style type="text/css"></style></defs><path d="M512 523.776m-468.650667 0a468.650667 468.650667 0 1 0 937.301334 0 468.650667 468.650667 0 1 0-937.301334 0Z" fill="#040000" p-id="1355"></path><path d="M512 523.776m-427.690667 0a427.690667 427.690667 0 1 0 855.381334 0 427.690667 427.690667 0 1 0-855.381334 0Z" fill="#F3C81E" p-id="1356"></path><path d="M120.490667 609.792c0-249.514667 202.24-451.754667 451.754666-451.754667 96.768 0 186.368 30.549333 259.925334 82.261334-78.506667-88.234667-192.853333-144.042667-320.170667-144.042667C275.797333 96.256 84.309333 287.744 84.309333 523.946667c0 74.069333 18.773333 143.701333 51.882667 204.288-10.069333-37.717333-15.701333-77.482667-15.701333-118.442667z" fill="#F6D85E" p-id="1357"></path><path d="M387.242667 398.848l-131.413334 84.309333c-0.853333 0.512-2.048 0.341333-2.56-0.512l-16.554666-25.770666c-0.512-0.853333-0.341333-2.048 0.512-2.56l131.413333-84.309334c0.853333-0.512 2.048-0.341333 2.56 0.512l16.554667 25.770667c0.682667 0.853333 0.341333 2.048-0.512 2.56zM638.293333 390.144l133.461334 85.674667c0.853333 0.512 2.048 0.341333 2.56-0.512l16.554666-25.770667c0.512-0.853333 0.341333-2.048-0.512-2.56l-133.461333-85.674667c-0.853333-0.512-2.048-0.341333-2.56 0.512l-16.554667 25.770667c-0.682667 0.853333-0.341333 1.877333 0.512 2.56zM369.664 602.453333c-41.813333 0-75.776-33.962667-75.776-75.776h-26.282667c0 56.32 45.738667 102.058667 102.058667 102.058667s102.058667-45.738667 102.058667-102.058667H445.44c0 41.813333-33.962667 75.776-75.776 75.776zM659.114667 602.453333c-41.813333 0-75.776-33.962667-75.776-75.776h-26.282667c0 56.32 45.738667 102.058667 102.058667 102.058667s102.058667-45.738667 102.058666-102.058667h-26.282666c0 41.813333-33.962667 75.776-75.776 75.776zM678.741333 792.917333H366.08c-1.024 0-1.877333-0.853333-1.877333-1.877333v-30.037333c0-1.024 0.853333-1.877333 1.877333-1.877334h312.490667c1.024 0 1.877333 0.853333 1.877333 1.877334v30.037333c0.170667 1.024-0.682667 1.877333-1.706667 1.877333z" fill="#040000" p-id="1358"></path></svg>