<?xml version="1.0" standalone="no"?><!DOCTYPE svg PUBLIC "-//W3C//DTD SVG 1.1//EN" "http://www.w3.org/Graphics/SVG/1.1/DTD/svg11.dtd"><svg t="1559130572341" class="icon" style="" viewBox="0 0 1024 1024" version="1.1" xmlns="http://www.w3.org/2000/svg" p-id="1750" xmlns:xlink="http://www.w3.org/1999/xlink" width="48" height="48"><defs><style type="text/css"></style></defs><path d="M900.4 859.4h-815c-12.3 0-22.3-10-22.3-22.3L21.7 530.3c0-12.3 10-22.3 22.3-22.3h663.1c135.2 0 299.9 109.6 299.9 244.8 0 51.3-78.1 106.6-106.6 106.6z" fill="#C1E7D8" p-id="1751"></path><path d="M900.4 868.4h-815c-17 0-30.9-13.7-31.3-30.6L12.8 531.5c-0.1-0.4-0.1-0.8-0.1-1.2 0-17.3 14-31.3 31.3-31.3h663.1C847 499 1016 612.2 1016 752.8c0 14.7-5.9 44.5-45.7 79.3-24.8 21.7-52.9 36.3-69.9 36.3zM30.7 529.8L72 835.9c0.1 0.4 0.1 0.8 0.1 1.2 0 7.3 6 13.3 13.3 13.3h815c23.8 0 97.6-51.9 97.6-97.6 0-30.7-8.9-61.2-26.6-90.6-16.3-27.2-40.2-53.2-69.1-75.3C845 543.1 772 517 707.1 517H44c-7.2 0-13 5.7-13.3 12.8z" fill="#3E4152" p-id="1752"></path><path d="M900.4 726.2H737.6c-12.3 0-22.3-10-22.3-22.3l-82.7-173.6c0-12.3 10-22.3 22.3-22.3h52.2c135.2 0 260.8 98.8 272.3 168.8 0 51.3-50.5 49.4-79 49.4z" fill="#9B5C77" p-id="1753"></path><path d="M906.5 735.2H737.6c-16.5 0-30.1-12.9-31.2-29.1l-81.9-171.9c-0.6-1.2-0.9-2.5-0.9-3.9 0-17.3 14-31.3 31.3-31.3h52.2c63.7 0 130.3 21.2 187.6 59.7 52.4 35.3 87.4 78.9 93.6 116.7 0.1 0.5 0.1 1 0.1 1.5 0 16.8-4.9 30.3-14.7 40-17.5 17.5-46.6 18.3-67.2 18.3zM641.8 528.5L723.4 700c0.6 1.2 0.9 2.5 0.9 3.9 0 7.3 6 13.3 13.3 13.3h165.7c18.8 0 44.5 0.1 57.7-13.1 6.2-6.2 9.2-14.8 9.4-26.5-5.7-32.4-38.5-72.1-85.8-103.9-54.2-36.6-117.3-56.7-177.5-56.7h-52.2c-6.7 0-12.3 5-13.1 11.5zM285.8 735.2h-50.5c-3.7 0-7-2.2-8.3-5.6l-57-140.3c-1.9-4.6 0.3-9.9 5-11.7 4.6-1.9 9.9 0.3 11.7 5l54.7 134.7h44.5c5 0 9 4 9 9s-4.1 8.9-9.1 8.9zM439.6 735.2H389c-3.7 0-7-2.2-8.3-5.6l-56.9-140.3c-1.9-4.6 0.3-9.9 5-11.7 4.6-1.9 9.9 0.3 11.7 5l54.7 134.7h44.5c5 0 9 4 9 9s-4.2 8.9-9.1 8.9zM593.3 735.2h-50.5c-3.7 0-7-2.2-8.3-5.6l-56.9-140.3c-1.9-4.6 0.3-9.9 5-11.7 4.6-1.9 9.9 0.3 11.7 5L549 717.3h44.5c5 0 9 4 9 9s-4.2 8.9-9.2 8.9zM593.3 241.4H485.8c-2.4 0-4.8-1-6.5-2.8-1.7-1.8-2.6-4.1-2.5-6.6 0.4-10.8-2.9-19.8-10.2-27.4-9.7-10.1-26.6-17.7-49-21.9-17.4-3.3-31.7-3.3-31.9-3.3-1.4 0-2.8-0.3-4-0.9-30.3-15-57.8-17.8-81.7-8.2-41.3 16.5-59.4 64.8-59.6 65.3-1.3 3.5-4.7 5.9-8.5 5.9H21.7c-5 0-9-4-9-9s4-9 9-9h204.4c6.7-15 27.3-53.8 67.2-69.8 28.4-11.4 60.2-8.7 94.7 7.9 11.6 0.3 65.1 3.1 91.7 30.8 8.5 8.9 13.5 19.3 14.8 31.2h98.8c5 0 9 4 9 9s-4 8.8-9 8.8zM918.4 385.8H811c-2.4 0-4.8-1-6.5-2.7s-2.6-4.1-2.5-6.5c0.6-21.4-5.5-38.8-18.1-51.9-26.2-27-72.4-27.5-72.9-27.5-1.9 0-3.7-0.6-5.2-1.7-25.8-18.3-49.4-23.7-70.2-16-48.3 17.8-69.4 98.7-69.6 99.5-1 4-4.6 6.8-8.7 6.8h-117c-5 0-9-4-9-9s4-9 9-9h110.2c2.6-8.5 7.9-23.9 16.3-40.5 17.1-33.9 38.2-55.6 62.5-64.6 26-9.6 54.5-4 84.6 16.6 11.7 0.5 55.1 4.3 82.8 32.8 14.3 14.7 22 33.4 23.2 55.7h98.6c5 0 9 4 9 9s-4.1 9-9.1 9zM305.8 385.8h-0.7c-5 0-9-4-9-9s4-9 9-9h0.7c5 0 9 4 9 9s-4 9-9 9zM366.9 385.8h-0.7c-5 0-9-4-9-9s4-9 9-9h0.7c5 0 9 4 9 9s-4 9-9 9z" fill="#3E4152" p-id="1754"></path></svg>